<?xml version="1.0" encoding="utf-8"?>
<!-- Generator: Adobe Illustrator 21.0.2, SVG Export Plug-In . SVG Version: 6.00 Build 0)  -->
<svg version="1.1" id="Layer_1" xmlns="http://www.w3.org/2000/svg" xmlns:xlink="http://www.w3.org/1999/xlink" x="0px" y="0px"
	 viewBox="0 0 1022 269" style="enable-background:new 0 0 1022 269;" xml:space="preserve">
<style type="text/css">
	.st0{fill:#FF0805;}
	.st1{fill:#3811F1;}
	.st2{fill:#FFFFFF;}
	.st3{fill:#FFFF00;}
	.st4{fill:#050805;}
</style>
<g>
	<path class="st0" d="M280.5,64.5c-14.9,0-27-12.1-27-27s12.1-27,27-27s27,12.1,27,27S295.4,64.5,280.5,64.5z"/>
	<path d="M280.5,11c14.6,0,26.5,11.9,26.5,26.5S295.1,64,280.5,64S254,52.1,254,37.5S265.9,11,280.5,11 M280.5,10
		C265.3,10,253,22.3,253,37.5S265.3,65,280.5,65S308,52.7,308,37.5S295.7,10,280.5,10L280.5,10z"/>
</g>
<g>
	<path class="st1" d="M214.5,64.5c-14.9,0-27-12.1-27-27s12.1-27,27-27s27,12.1,27,27S229.4,64.5,214.5,64.5z"/>
	<path d="M214.5,11c14.6,0,26.5,11.9,26.5,26.5S229.1,64,214.5,64S188,52.1,188,37.5S199.9,11,214.5,11 M214.5,10
		C199.3,10,187,22.3,187,37.5S199.3,65,214.5,65S242,52.7,242,37.5S229.7,10,214.5,10L214.5,10z"/>
</g>
<g>
	<path class="st2" d="M27.5,268.5c-14.9,0-27-12.1-27-27s12.1-27,27-27s27,12.1,27,27S42.4,268.5,27.5,268.5z"/>
	<path d="M27.5,215c14.6,0,26.5,11.9,26.5,26.5S42.1,268,27.5,268S1,256.1,1,241.5S12.9,215,27.5,215 M27.5,214
		C12.3,214,0,226.3,0,241.5S12.3,269,27.5,269S55,256.7,55,241.5S42.7,214,27.5,214L27.5,214z"/>
</g>
<g>
	<path class="st3" d="M407.5,268.5c-14.9,0-27-12.1-27-27s12.1-27,27-27s27,12.1,27,27S422.4,268.5,407.5,268.5z"/>
	<path d="M407.5,215c14.6,0,26.5,11.9,26.5,26.5S422.1,268,407.5,268S381,256.1,381,241.5S392.9,215,407.5,215 M407.5,214
		c-15.2,0-27.5,12.3-27.5,27.5s12.3,27.5,27.5,27.5s27.5-12.3,27.5-27.5S422.7,214,407.5,214L407.5,214z"/>
</g>
<g>
	<g>
		<path class="st0" d="M92.5,54.5c-14.9,0-27-12.1-27-27s12.1-27,27-27s27,12.1,27,27S107.4,54.5,92.5,54.5z"/>
		<path d="M92.5,1C107.1,1,119,12.9,119,27.5S107.1,54,92.5,54S66,42.1,66,27.5S77.9,1,92.5,1 M92.5,0C77.3,0,65,12.3,65,27.5
			S77.3,55,92.5,55S120,42.7,120,27.5S107.7,0,92.5,0L92.5,0z"/>
	</g>
	<g>
		<rect x="85.5" y="47.5" class="st4" width="13" height="52"/>
		<path d="M98,48v51H86V48H98 M99,47H85v53h14V47L99,47z"/>
	</g>
</g>
<g>
	<path class="st1" d="M346.5,64.5c-14.9,0-27-12.1-27-27s12.1-27,27-27s27,12.1,27,27S361.4,64.5,346.5,64.5z"/>
	<path d="M346.5,11c14.6,0,26.5,11.9,26.5,26.5S361.1,64,346.5,64S320,52.1,320,37.5S331.9,11,346.5,11 M346.5,10
		C331.3,10,319,22.3,319,37.5S331.3,65,346.5,65S374,52.7,374,37.5S361.7,10,346.5,10L346.5,10z"/>
</g>
<g>
	<path class="st0" d="M346.5,123.5c-14.9,0-27-12.1-27-27s12.1-27,27-27s27,12.1,27,27S361.4,123.5,346.5,123.5z"/>
	<path d="M346.5,70c14.6,0,26.5,11.9,26.5,26.5S361.1,123,346.5,123S320,111.1,320,96.5S331.9,70,346.5,70 M346.5,69
		C331.3,69,319,81.3,319,96.5s12.3,27.5,27.5,27.5S374,111.7,374,96.5S361.7,69,346.5,69L346.5,69z"/>
</g>
<g>
	<path class="st0" d="M280.5,123.5c-14.9,0-27-12.1-27-27s12.1-27,27-27s27,12.1,27,27S295.4,123.5,280.5,123.5z"/>
	<path d="M280.5,70c14.6,0,26.5,11.9,26.5,26.5S295.1,123,280.5,123S254,111.1,254,96.5S265.9,70,280.5,70 M280.5,69
		C265.3,69,253,81.3,253,96.5s12.3,27.5,27.5,27.5S308,111.7,308,96.5S295.7,69,280.5,69L280.5,69z"/>
</g>
<g>
	<path class="st0" d="M214.5,123.5c-14.9,0-27-12.1-27-27s12.1-27,27-27s27,12.1,27,27S229.4,123.5,214.5,123.5z"/>
	<path d="M214.5,70c14.6,0,26.5,11.9,26.5,26.5S229.1,123,214.5,123S188,111.1,188,96.5S199.9,70,214.5,70 M214.5,69
		C199.3,69,187,81.3,187,96.5s12.3,27.5,27.5,27.5S242,111.7,242,96.5S229.7,69,214.5,69L214.5,69z"/>
</g>
<g>
	<path class="st0" d="M97.5,268.5c-14.9,0-27-12.1-27-27s12.1-27,27-27s27,12.1,27,27S112.4,268.5,97.5,268.5z"/>
	<path d="M97.5,215c14.6,0,26.5,11.9,26.5,26.5S112.1,268,97.5,268S71,256.1,71,241.5S82.9,215,97.5,215 M97.5,214
		C82.3,214,70,226.3,70,241.5S82.3,269,97.5,269s27.5-12.3,27.5-27.5S112.7,214,97.5,214L97.5,214z"/>
</g>
<g>
	<path class="st3" d="M465.5,268.5c-14.9,0-27-12.1-27-27s12.1-27,27-27s27,12.1,27,27S480.4,268.5,465.5,268.5z"/>
	<path d="M465.5,215c14.6,0,26.5,11.9,26.5,26.5S480.1,268,465.5,268S439,256.1,439,241.5S450.9,215,465.5,215 M465.5,214
		c-15.2,0-27.5,12.3-27.5,27.5s12.3,27.5,27.5,27.5s27.5-12.3,27.5-27.5S480.7,214,465.5,214L465.5,214z"/>
</g>
<g>
	<path class="st0" d="M885.5,64.5c-14.9,0-27-12.1-27-27s12.1-27,27-27s27,12.1,27,27S900.4,64.5,885.5,64.5z"/>
	<path d="M885.5,11c14.6,0,26.5,11.9,26.5,26.5S900.1,64,885.5,64S859,52.1,859,37.5S870.9,11,885.5,11 M885.5,10
		C870.3,10,858,22.3,858,37.5S870.3,65,885.5,65S913,52.7,913,37.5S900.7,10,885.5,10L885.5,10z"/>
</g>
<g>
	<path class="st1" d="M819.5,64.5c-14.9,0-27-12.1-27-27s12.1-27,27-27s27,12.1,27,27S834.4,64.5,819.5,64.5z"/>
	<path d="M819.5,11c14.6,0,26.5,11.9,26.5,26.5S834.1,64,819.5,64S793,52.1,793,37.5S804.9,11,819.5,11 M819.5,10
		C804.3,10,792,22.3,792,37.5S804.3,65,819.5,65S847,52.7,847,37.5S834.7,10,819.5,10L819.5,10z"/>
</g>
<g>
	<path class="st2" d="M924.5,268.5c-14.9,0-27-12.1-27-27s12.1-27,27-27s27,12.1,27,27S939.4,268.5,924.5,268.5z"/>
	<path d="M924.5,215c14.6,0,26.5,11.9,26.5,26.5S939.1,268,924.5,268S898,256.1,898,241.5S909.9,215,924.5,215 M924.5,214
		c-15.2,0-27.5,12.3-27.5,27.5s12.3,27.5,27.5,27.5s27.5-12.3,27.5-27.5S939.7,214,924.5,214L924.5,214z"/>
</g>
<g>
	<g>
		<path class="st0" d="M697.5,54.5c-14.9,0-27-12.1-27-27s12.1-27,27-27s27,12.1,27,27S712.4,54.5,697.5,54.5z"/>
		<path d="M697.5,1C712.1,1,724,12.9,724,27.5S712.1,54,697.5,54S671,42.1,671,27.5S682.9,1,697.5,1 M697.5,0
			C682.3,0,670,12.3,670,27.5S682.3,55,697.5,55S725,42.7,725,27.5S712.7,0,697.5,0L697.5,0z"/>
	</g>
	<g>
		<rect x="690.5" y="47.5" class="st4" width="13" height="52"/>
		<path d="M703,48v51h-12V48H703 M704,47h-14v53h14V47L704,47z"/>
	</g>
</g>
<g>
	<path class="st1" d="M951.5,64.5c-14.9,0-27-12.1-27-27s12.1-27,27-27s27,12.1,27,27S966.4,64.5,951.5,64.5z"/>
	<path d="M951.5,11c14.6,0,26.5,11.9,26.5,26.5S966.1,64,951.5,64S925,52.1,925,37.5S936.9,11,951.5,11 M951.5,10
		C936.3,10,924,22.3,924,37.5S936.3,65,951.5,65S979,52.7,979,37.5S966.7,10,951.5,10L951.5,10z"/>
</g>
<g>
	<path class="st0" d="M951.5,123.5c-14.9,0-27-12.1-27-27s12.1-27,27-27s27,12.1,27,27S966.4,123.5,951.5,123.5z"/>
	<path d="M951.5,70c14.6,0,26.5,11.9,26.5,26.5S966.1,123,951.5,123S925,111.1,925,96.5S936.9,70,951.5,70 M951.5,69
		C936.3,69,924,81.3,924,96.5s12.3,27.5,27.5,27.5S979,111.7,979,96.5S966.7,69,951.5,69L951.5,69z"/>
</g>
<g>
	<path class="st0" d="M885.5,123.5c-14.9,0-27-12.1-27-27s12.1-27,27-27s27,12.1,27,27S900.4,123.5,885.5,123.5z"/>
	<path d="M885.5,70c14.6,0,26.5,11.9,26.5,26.5S900.1,123,885.5,123S859,111.1,859,96.5S870.9,70,885.5,70 M885.5,69
		C870.3,69,858,81.3,858,96.5s12.3,27.5,27.5,27.5S913,111.7,913,96.5S900.7,69,885.5,69L885.5,69z"/>
</g>
<g>
	<path class="st0" d="M819.5,123.5c-14.9,0-27-12.1-27-27s12.1-27,27-27s27,12.1,27,27S834.4,123.5,819.5,123.5z"/>
	<path d="M819.5,70c14.6,0,26.5,11.9,26.5,26.5S834.1,123,819.5,123S793,111.1,793,96.5S804.9,70,819.5,70 M819.5,69
		C804.3,69,792,81.3,792,96.5s12.3,27.5,27.5,27.5S847,111.7,847,96.5S834.7,69,819.5,69L819.5,69z"/>
</g>
<g>
	<path class="st0" d="M994.5,268.5c-14.9,0-27-12.1-27-27s12.1-27,27-27s27,12.1,27,27S1009.4,268.5,994.5,268.5z"/>
	<path d="M994.5,215c14.6,0,26.5,11.9,26.5,26.5s-11.9,26.5-26.5,26.5S968,256.1,968,241.5S979.9,215,994.5,215 M994.5,214
		c-15.2,0-27.5,12.3-27.5,27.5s12.3,27.5,27.5,27.5s27.5-12.3,27.5-27.5S1009.7,214,994.5,214L994.5,214z"/>
</g>
</svg>
